<svg xmlns="http://www.w3.org/2000/svg" version="1.1" xmlns:xlink="http://www.w3.org/1999/xlink" xmlns:svgjs="http://svgjs.dev/svgjs" width="1000" height="1125" viewBox="0 0 1000 1125"><g transform="matrix(1,0,0,1,1.7053025658242404e-13,0)"><svg viewBox="0 0 320 360" data-background-color="#ffffff" preserveAspectRatio="xMidYMid meet" height="1125" width="1000" xmlns="http://www.w3.org/2000/svg" xmlns:xlink="http://www.w3.org/1999/xlink"><g id="tight-bounds" transform="matrix(1,0,0,1,0,0)"><svg viewBox="0 0 320 360" height="360" width="320"><g><svg></svg></g><g><svg viewBox="0 0 320 360" height="360" width="320"><g><path xmlns="http://www.w3.org/2000/svg" d="M20.961 227.22l3.726 4.658-1.863-6.056c-0.466-2.795-3.726 0.466-1.863 1.398M25.153 224.425c1.397 2.329 2.795 4.658 2.795 6.987 0 3.261 2.795 4.658 5.123 5.589-3.261-3.726-5.124-13.974-7.918-12.576M204.017 26.929c7.918 0 15.371-0.932 23.756 0.931 20.495 5.124 37.729 15.371 49.374 29.811l32.606 52.169c1.397 13.042 4.192 27.482 3.726 43.319 3.261 0 2.795-4.658 6.521-5.59-3.726 9.316-5.59 20.961-6.521 34.469-2.329-7.453 0-18.632 0.466-24.687-3.261 5.124-5.124 1.397-5.124-0.932 0.466-3.726-1.397-3.261-2.795-4.658-5.124-4.658-8.384-9.782-12.11-17.7 2.329-6.055 2.795-14.905-4.658-19.563-2.329-1.397-5.124-3.726-6.521-7.453-1.863-5.124-5.124-11.179-4.193-19.097 0.466-2.329-6.987 5.124-11.179 1.863-18.166-12.576-36.332-27.016-58.224-39.127-11.645 0-20.029-4.192-24.221-9.316-3.726-4.658-0.932-10.713 4.658-11.179 3.261 0 6.987-0.932 9.782 0.932 0.466-1.863 2.329-4.192 4.657-4.192M157.904 16.215l0.932 0.466c4.658 0.932 6.987 7.453 12.11 5.124 0 3.261 0.466 6.521-0.466 8.85-1.397 3.726-5.59 3.726-8.85 3.726-31.208-1.863-49.374 11.179-68.471 22.358-5.124 3.261-10.713 5.59-14.906 9.782-20.029 18.632-41.921 35.866-47.045 70.335l-4.192 38.195c-0.466 4.192-5.124 8.384-4.192 13.508l3.26 22.824c-3.261-3.261-5.124 0.932-4.192 2.795 0.466 1.397 2.329 6.055 5.124 1.863 3.726 6.987 7.453 20.495 12.576 26.55 15.837 18.632 36.332 35.4 53.101 52.169 4.192-0.932 7.453-0.932 8.384-3.727 1.397 2.795-1.397 5.59-3.726 6.056 7.453 4.658 15.837 8.85 27.016 9.781 14.44 0.932 27.948 3.261 40.524 6.522 6.521-1.863 13.042-2.795 20.029-3.261 2.329 0 3.726-3.726 6.521-4.658l0.466-4.658c2.795 4.192 2.329-1.397 0.466-4.192 3.261 2.795 4.192 5.124 5.589 6.987 0-1.397 3.726-6.521 3.727-0.466l0.931-6.055c1.397-0.932 1.863 5.124 3.261 0.931 1.397-4.192 4.192-0.932 6.987-2.329-0.932 1.863-0.466 5.59 2.794 3.261l3.727-3.261c2.329 5.59 6.055 3.261 7.918 2.329 20.495-13.042 40.99-28.413 60.553-43.784l-0.466 6.055 2.329-7.453c2.329 2.329 4.192 0.466 5.124-0.931 2.795-4.658 6.521-9.316 12.577-13.508-7.453 20.029-16.303 35.866-27.482 48.908l-4.658 5.59c0 3.261-0.932 7.453-4.658 7.918-1.863 0.466-5.59-0.932-8.384 1.863-1.397 1.863 3.261 5.59-0.466 2.795-3.261-2.329-6.521 0-10.248 0.932-2.795 0.932 1.863 3.726 2.795 5.589 0.932 1.863 1.863 3.726 1.398 6.056l-5.124-5.59c-6.055 3.261-9.782 9.316-14.906 13.974-2.329 1.863-1.397 5.124-1.397 7.918-3.261 0-6.987-0.932-8.85 0.932-1.397 1.863-0.932 4.658-0.932 7.453-4.658-0.466-5.124-7.453-9.315-6.056-4.192 0.932-8.85 1.397-12.577 3.727 2.795 5.59-4.658 2.329-3.726 3.26-6.987-4.192-13.042-7.453-20.495-4.658-15.837-5.124-35.4-2.795-49.84-0.931 0-2.329 0.466-4.658-0.466-5.124-0.932 2.329-3.726 1.397-3.26 1.397-8.85-6.055-17.7-9.782-27.016-14.905-8.384 0.932-16.303-3.261-18.632-5.59-6.521-6.055-13.974-2.795-20.029-4.192-13.042-3.261-17.7-16.769-19.098-26.084-0.932-4.658-4.658-6.521-6.055-6.056-6.055-19.563-15.371-37.263-22.824-55.429-1.863-4.658-1.397-9.316-1.397-14.44 2.329 0.932 4.658 0.466 4.192-2.794-2.329-15.371-7.918-27.016-13.974-38.195 3.261-15.837 3.726-34.469 11.179-48.443 6.521-12.576 18.632-19.098 27.016-29.811 2.795-3.726 2.795-8.85 5.59-12.11 9.316-9.316 18.632-19.098 28.879-27.482 4.658-3.726 10.247 0 17.234-1.397 2.329-8.384 11.645-15.837 20.495-13.508 3.726 0.932 11.179-8.85 13.508-9.782 3.726-1.397 1.863 3.726 1.863 6.987 8.85-6.987 20.961-10.713 32.14-14.906" fill="#4790fc" fill-rule="nonzero" stroke="none" stroke-width="1" stroke-linecap="butt" stroke-linejoin="miter" stroke-miterlimit="10" stroke-dasharray="" stroke-dashoffset="0" font-family="none" font-weight="none" font-size="none" text-anchor="none" style="mix-blend-mode: normal" data-fill-palette-color="tertiary"></path></g><g transform="matrix(1,0,0,1,64,133.23076923076923)"><svg viewBox="0 0 192 93.53846153846153" height="93.53846153846153" width="192"><g><svg viewBox="0 0 192 93.53846153846153" height="93.53846153846153" width="192"><g><svg viewBox="0 0 192 93.53846153846153" height="93.53846153846153" width="192"><g><svg viewBox="0 0 192 93.53846153846153" height="93.53846153846153" width="192"><g id="textblocktransform"><svg viewBox="0 0 192 93.53846153846153" height="93.53846153846153" width="192" id="textblock"><g><svg viewBox="0 0 192 93.53846153846153" height="93.53846153846153" width="192"><g transform="matrix(1,0,0,1,0,0)"><svg width="192" viewBox="2.3499999046325684 -36.79999923706055 83.8499984741211 40.849998474121094" height="93.53846153846153" data-palette-color="#4790fc"><path d="M25.7 3.7L25.7 3.7Q25.6 3.75 25.5 3.75 25.4 3.75 25.1 3.75L25.1 3.75Q24.4 3.75 23.48 3.53 22.55 3.3 21.68 2.98 20.8 2.65 20.18 2.25 19.55 1.85 19.4 1.55L19.4 1.55Q19.35 0.85 19.35 0.1 19.35-0.65 19.35-1.35L19.35-1.35Q19.35-6.95 20.18-13.05 21-19.15 22.9-26.25L22.9-26.25Q23.1-26.95 23.33-28.03 23.55-29.1 23.8-30.35L23.8-30.35Q22.6-29.4 20.95-27.33 19.3-25.25 17.48-22.43 15.65-19.6 13.83-16.23 12-12.85 10.5-9.38 9-5.9 7.93-2.5 6.85 0.9 6.6 3.8L6.6 3.8Q4.2 3.1 3.28 2.4 2.35 1.7 2.35 0.7L2.35 0.7Q2.35-0.2 2.9-1.85 3.45-3.5 4.45-5.75 5.45-8 6.9-10.78 8.35-13.55 10.1-16.75L10.1-16.75Q12.1-20.4 14.03-23.6 15.95-26.8 17.8-29.4 19.65-32 21.43-33.9 23.2-35.8 24.95-36.8L24.95-36.8Q25.65-36.8 26.83-36.45 28-36.1 29.13-35.6 30.25-35.1 31.13-34.58 32-34.05 32.1-33.7L32.1-33.7Q31.4-32.3 30.45-29.5 29.5-26.7 28.53-23.15 27.55-19.6 26.68-15.63 25.8-11.65 25.3-8L25.3-8Q26.45-10.75 27.98-13.73 29.5-16.7 31.2-19.63 32.9-22.55 34.68-25.3 36.45-28.05 38.15-30.33 39.85-32.6 41.33-34.3 42.8-36 43.95-36.8L43.95-36.8Q44.65-36.8 45.83-36.45 47-36.1 48.13-35.6 49.25-35.1 50.13-34.58 51-34.05 51.1-33.7L51.1-33.7Q49.5-30.85 48.3-26.75 47.1-22.65 46.28-18.15 45.45-13.65 45.03-9.22 44.6-4.8 44.6-1.3L44.6-1.3Q44.6-0.15 44.6 1.1 44.6 2.35 44.7 3.7L44.7 3.7Q44 3.7 43.03 3.53 42.05 3.35 41.13 3.05 40.2 2.75 39.45 2.38 38.7 2 38.4 1.55L38.4 1.55Q38.35 0.85 38.35 0.1 38.35-0.65 38.35-1.35L38.35-1.35Q38.35-6.95 39.18-13.05 40-19.15 41.9-26.25L41.9-26.25Q42.1-26.95 42.35-28.15 42.6-29.35 42.85-30.65L42.85-30.65Q41.45-29.95 39.68-27.98 37.9-26 36.08-23.18 34.25-20.35 32.48-16.9 30.7-13.45 29.28-9.88 27.85-6.3 26.88-2.78 25.9 0.75 25.7 3.7ZM86.2-26.95L86.2-26.95Q86.2-24.2 84.82-21.7 83.45-19.2 81.12-17.32 78.8-15.45 75.67-14.35 72.55-13.25 69.05-13.25L69.05-13.25Q67.8-13.25 67.07-13.58 66.35-13.9 65.45-14.85L65.45-14.85Q62.95-9.4 61.37-4.83 59.8-0.25 58.9 4.05L58.9 4.05Q57 3.6 55.8 2.48 54.6 1.35 53.6-0.35L53.6-0.35Q54.1-1.3 54.8-2.85 55.5-4.4 56.5-6.68 57.5-8.95 58.82-12.13 60.15-15.3 61.95-19.55L61.95-19.55Q62.75-21.5 63.35-22.95 63.95-24.4 64.4-25.68 64.85-26.95 65.22-28.2 65.6-29.45 66-30.95L66-30.95Q63.65-30.2 61.67-29.2 59.7-28.2 58.4-27.1L58.4-27.1Q57.95-27.4 57.47-28 57-28.6 56.6-29.33 56.2-30.05 55.9-30.8 55.6-31.55 55.55-32.15L55.55-32.15Q57-33.15 59.15-34 61.3-34.85 63.75-35.48 66.2-36.1 68.82-36.45 71.45-36.8 73.85-36.8L73.85-36.8Q76.7-36.8 79-36.08 81.3-35.35 82.9-34.05 84.5-32.75 85.35-30.95 86.2-29.15 86.2-26.95ZM77.3-32.95L77.3-32.95Q75.4-32.95 73.4-32.65L73.4-32.65 74-31.75Q73.5-31.1 72.75-29.8 72-28.5 71.1-26.68 70.2-24.85 69.12-22.6 68.05-20.35 66.85-17.85L66.85-17.85Q70.75-17.85 73.95-18.57 77.15-19.3 79.42-20.58 81.7-21.85 82.97-23.55 84.25-25.25 84.25-27.2L84.25-27.2Q84.25-29.8 82.5-31.38 80.75-32.95 77.3-32.95Z" opacity="1" transform="matrix(1,0,0,1,0,0)" fill="#4790fc" class="wordmark-text-0" data-fill-palette-color="primary" id="text-0"></path></svg></g></svg></g></svg></g></svg></g><g></g></svg></g></svg></g></svg></g></svg></g><defs></defs></svg><rect width="320" height="360" fill="none" stroke="none" visibility="hidden"></rect></g></svg></g></svg>